ffmpeg started on 2025-05-24 at 15:38:16
Report written to "D:\Convert\FFMetrics\reports\ssim_report-6.txt"
Log level: 32
Command line:
ffmpeg -hide_banner -nostdin -i "G:\\\xc0\xed\xe8\xec\xe5\\\xce\xed\xe3\xee\xe8\xed\xe3\xe8\\!_33_\xc7\xe8\xec\xe0_2024\\DreamCast\\\xd1\xf2\xe0\xed\xee\xe2\xff\xf1\xfc \xe2\xee\xeb\xf8\xe5\xe1\xed\xe8\xf6\xe5\xe9\\[DC] Mahou Shoujo ni Akogarete - 06_Telegram_HEVC.mkv" -i "G:\\\xc0\xed\xe8\xec\xe5\\\xce\xed\xe3\xee\xe8\xed\xe3\xe8\\!_33_\xc7\xe8\xec\xe0_2024\\DreamCast\\\xd1\xf2\xe0\xed\xee\xe2\xff\xf1\xfc \xe2\xee\xeb\xf8\xe5\xe1\xed\xe8\xf6\xe5\xe9\\[DC] Mahou Shoujo ni Akogarete - 06_Telegram.mp4" -lavfi "[0:v]settb=AVTB,setpts=PTS-STARTPTS,format=pix_fmts=yuv420p10,fps=24000/1001,scale=1920:1080:flags=bicubic[main];[1:v]settb=AVTB,setpts=PTS-STARTPTS,format=pix_fmts=yuv420p,fps=24000/1001,scale=1920:1080:flags=bicubic[ref];[main][ref]ssim=eof_action=endall:stats_file='D\\:/Convert/FFMetrics/logs/ssim_logfile-6.txt'" -f null -
Input #0, matroska,webm, from 'G:\Аниме\Онгоинги\!_33_Зима_2024\DreamCast\Становясь волшебницей\[DC] Mahou Shoujo ni Akogarete - 06_Telegram_HEVC.mkv':
  Metadata:
    COMPATIBLE_BRANDS: isomiso2avc1mp41
    MAJOR_BRAND     : isom
    MINOR_VERSION   : 512
    ENCODER         : Lavf61.7.100
  Duration: 00:23:49.16, start: -0.021000, bitrate: 1023 kb/s
  Stream #0:0: Video: hevc (Main 10), yuv420p10le(tv, bt709, progressive), 1920x1080 [SAR 1:1 DAR 16:9], 23.98 fps, 23.98 tbr, 1k tbn (default)
      Metadata:
        HANDLER_NAME    : VideoHandler
        VENDOR_ID       : [0][0][0][0]
        ENCODER         : Lavc61.19.100 libx265
        BPS             : 825805
        DURATION        : 00:23:48.969708333
        NUMBER_OF_FRAMES: 34261
        NUMBER_OF_BYTES : 147506367
        _STATISTICS_WRITING_APP: mkvpropedit v66.0.0 ('Josie') 64-bit
        _STATISTICS_WRITING_DATE_UTC: 2025-05-24 09:54:39
        _STATISTICS_TAGS: BPS DURATION NUMBER_OF_FRAMES NUMBER_OF_BYTES
  Stream #0:1: Audio: aac (LC), 48000 Hz, stereo, fltp (default)
      Metadata:
        HANDLER_NAME    : SoundHandler
        VENDOR_ID       : [0][0][0][0]
        ENCODER         : Lavc61.19.100 aac
        BPS             : 193767
        DURATION        : 00:23:49.162000000
        NUMBER_OF_FRAMES: 66993
        NUMBER_OF_BYTES : 34615589
        _STATISTICS_WRITING_APP: mkvpropedit v66.0.0 ('Josie') 64-bit
        _STATISTICS_WRITING_DATE_UTC: 2025-05-24 09:54:39
        _STATISTICS_TAGS: BPS DURATION NUMBER_OF_FRAMES NUMBER_OF_BYTES
Input #1, mov,mp4,m4a,3gp,3g2,mj2, from 'G:\Аниме\Онгоинги\!_33_Зима_2024\DreamCast\Становясь волшебницей\[DC] Mahou Shoujo ni Akogarete - 06_Telegram.mp4':
  Metadata:
    major_brand     : isom
    minor_version   : 512
    compatible_brands: isomiso2avc1mp41
    encoder         : Lavf60.16.100
  Duration: 00:23:49.12, start: 0.000000, bitrate: 3518 kb/s
  Stream #1:0[0x1](und): Video: h264 (High) (avc1 / 0x31637661), yuv420p(tv, bt709, progressive), 1920x1080 [SAR 1:1 DAR 16:9], 3370 kb/s, 23.98 fps, 23.98 tbr, 24k tbn (default)
      Metadata:
        handler_name    : VideoHandler
        vendor_id       : [0][0][0][0]
        encoder         : Lavc60.31.102 h264_qsv
  Stream #1:1[0x2](und): Audio: aac (HE-AACv2) (mp4a / 0x6134706D), 48000 Hz, stereo, fltp, 144 kb/s (default)
      Metadata:
        handler_name    : SoundHandler
        vendor_id       : [0][0][0][0]
Stream mapping:
  Stream #0:0 (hevc) -> settb:default
  Stream #1:0 (h264) -> settb:default
  ssim:default -> Stream #0:0 (wrapped_avframe)
  Stream #0:1 -> #0:1 (aac (native) -> pcm_s16le (native))
Output #0, null, to 'pipe:':
  Metadata:
    COMPATIBLE_BRANDS: isomiso2avc1mp41
    MAJOR_BRAND     : isom
    MINOR_VERSION   : 512
    encoder         : Lavf61.7.100
  Stream #0:0: Video: wrapped_avframe, yuv420p10le(tv, bt709, progressive), 1920x1080 [SAR 1:1 DAR 16:9], q=2-31, 200 kb/s, 23.98 fps, 23.98 tbn
      Metadata:
        encoder         : Lavc61.19.100 wrapped_avframe
  Stream #0:1: Audio: pcm_s16le, 48000 Hz, stereo, s16, 1536 kb/s (default)
      Metadata:
        HANDLER_NAME    : SoundHandler
        VENDOR_ID       : [0][0][0][0]
        _STATISTICS_TAGS: BPS DURATION NUMBER_OF_FRAMES NUMBER_OF_BYTES
        BPS             : 193767
        DURATION        : 00:23:49.162000000
        NUMBER_OF_FRAMES: 66993
        NUMBER_OF_BYTES : 34615589
        _STATISTICS_WRITING_APP: mkvpropedit v66.0.0 ('Josie') 64-bit
        _STATISTICS_WRITING_DATE_UTC: 2025-05-24 09:54:39
        encoder         : Lavc61.19.100 pcm_s16le
frame=  187 fps=0.0 q=-0.0 size=N/A time=00:00:07.79 bitrate=N/A speed=15.4x    frame=  453 fps=438 q=-0.0 size=N/A time=00:00:18.89 bitrate=N/A speed=18.3x    frame=  697 fps=451 q=-0.0 size=N/A time=00:00:29.07 bitrate=N/A speed=18.8x    frame=  935 fps=455 q=-0.0 size=N/A time=00:00:38.99 bitrate=N/A speed=  19x    frame= 1216 fps=471 q=-0.0 size=N/A time=00:00:50.71 bitrate=N/A speed=19.6x    frame= 1499 fps=485 q=-0.0 size=N/A time=00:01:02.52 bitrate=N/A speed=20.2x    frame= 1743 fps=484 q=-0.0 size=N/A time=00:01:12.69 bitrate=N/A speed=20.2x    frame= 2031 fps=492 q=-0.0 size=N/A time=00:01:24.70 bitrate=N/A speed=20.5x    frame= 2295 fps=495 q=-0.0 size=N/A time=00:01:35.72 bitrate=N/A speed=20.6x    frame= 2530 fps=491 q=-0.0 size=N/A time=00:01:45.52 bitrate=N/A speed=20.5x    frame= 2730 fps=481 q=-0.0 size=N/A time=00:01:53.86 bitrate=N/A speed=20.1x    frame= 2978 fps=482 q=-0.0 size=N/A time=00:02:04.20 bitrate=N/A speed=20.1x    frame= 3178 fps=475 q=-0.0 size=N/A time=00:02:12.54 bitrate=N/A speed=19.8x    frame= 3405 fps=472 q=-0.0 size=N/A time=00:02:22.01 bitrate=N/A speed=19.7x    frame= 3634 fps=470 q=-0.0 size=N/A time=00:02:31.56 bitrate=N/A speed=19.6x    frame= 3789 fps=460 q=-0.0 size=N/A time=00:02:38.03 bitrate=N/A speed=19.2x    frame= 3982 fps=454 q=-0.0 size=N/A time=00:02:46.08 bitrate=N/A speed=18.9x    frame= 4180 fps=451 q=-0.0 size=N/A time=00:02:54.34 bitrate=N/A speed=18.8x    frame= 4307 fps=439 q=-0.0 size=N/A time=00:02:59.63 bitrate=N/A speed=18.3x    frame= 4516 fps=438 q=-0.0 size=N/A time=00:03:08.35 bitrate=N/A speed=18.3x    frame= 4747 fps=439 q=-0.0 size=N/A time=00:03:17.98 bitrate=N/A speed=18.3x    frame= 4980 fps=439 q=-0.0 size=N/A time=00:03:27.70 bitrate=N/A speed=18.3x    frame= 5259 fps=443 q=-0.0 size=N/A time=00:03:39.34 bitrate=N/A speed=18.5x    frame= 5470 fps=442 q=-0.0 size=N/A time=00:03:48.14 bitrate=N/A speed=18.4x    frame= 5725 fps=444 q=-0.0 size=N/A time=00:03:58.78 bitrate=N/A speed=18.5x    frame= 6020 fps=449 q=-0.0 size=N/A time=00:04:11.08 bitrate=N/A speed=18.7x    frame= 6294 fps=452 q=-0.0 size=N/A time=00:04:22.51 bitrate=N/A speed=18.9x    frame= 6568 fps=455 q=-0.0 size=N/A time=00:04:33.94 bitrate=N/A speed=  19x    frame= 6843 fps=458 q=-0.0 size=N/A time=00:04:45.41 bitrate=N/A speed=19.1x    frame= 7102 fps=459 q=-0.0 size=N/A time=00:04:56.21 bitrate=N/A speed=19.1x    frame= 7379 fps=462 q=-0.0 size=N/A time=00:05:07.76 bitrate=N/A speed=19.3x    frame= 7661 fps=464 q=-0.0 size=N/A time=00:05:19.52 bitrate=N/A speed=19.4x    frame= 7947 fps=467 q=-0.0 size=N/A time=00:05:31.45 bitrate=N/A speed=19.5x    frame= 8193 fps=467 q=-0.0 size=N/A time=00:05:41.71 bitrate=N/A speed=19.5x    frame= 8418 fps=467 q=-0.0 size=N/A time=00:05:51.10 bitrate=N/A speed=19.5x    frame= 8700 fps=469 q=-0.0 size=N/A time=00:06:02.86 bitrate=N/A speed=19.5x    frame= 8975 fps=470 q=-0.0 size=N/A time=00:06:14.33 bitrate=N/A speed=19.6x    frame= 9256 fps=472 q=-0.0 size=N/A time=00:06:26.05 bitrate=N/A speed=19.7x    frame= 9529 fps=474 q=-0.0 size=N/A time=00:06:37.43 bitrate=N/A speed=19.8x    frame= 9780 fps=474 q=-0.0 size=N/A time=00:06:47.90 bitrate=N/A speed=19.8x    frame=10055 fps=475 q=-0.0 size=N/A time=00:06:59.37 bitrate=N/A speed=19.8x    frame=10319 fps=476 q=-0.0 size=N/A time=00:07:10.38 bitrate=N/A speed=19.9x    frame=10594 fps=478 q=-0.0 size=N/A time=00:07:21.85 bitrate=N/A speed=19.9x    frame=10863 fps=478 q=-0.0 size=N/A time=00:07:33.07 bitrate=N/A speed=  20x    frame=11123 fps=479 q=-0.0 size=N/A time=00:07:43.92 bitrate=N/A speed=  20x    frame=11399 fps=480 q=-0.0 size=N/A time=00:07:55.43 bitrate=N/A speed=  20x    frame=11647 fps=480 q=-0.0 size=N/A time=00:08:05.77 bitrate=N/A speed=  20x    frame=11906 fps=481 q=-0.0 size=N/A time=00:08:16.57 bitrate=N/A speed=20.1x    frame=12179 fps=482 q=-0.0 size=N/A time=00:08:27.96 bitrate=N/A speed=20.1x    frame=12418 fps=481 q=-0.0 size=N/A time=00:08:37.93 bitrate=N/A speed=20.1x    frame=12677 fps=482 q=-0.0 size=N/A time=00:08:48.73 bitrate=N/A speed=20.1x    frame=12941 fps=482 q=-0.0 size=N/A time=00:08:59.74 bitrate=N/A speed=20.1x    frame=13212 fps=483 q=-0.0 size=N/A time=00:09:11.05 bitrate=N/A speed=20.2x    frame=13454 fps=483 q=-0.0 size=N/A time=00:09:21.14 bitrate=N/A speed=20.1x    frame=13693 fps=483 q=-0.0 size=N/A time=00:09:31.11 bitrate=N/A speed=20.1x    frame=13941 fps=483 q=-0.0 size=N/A time=00:09:41.45 bitrate=N/A speed=20.1x    frame=14170 fps=482 q=-0.0 size=N/A time=00:09:51.00 bitrate=N/A speed=20.1x    frame=14438 fps=482 q=-0.0 size=N/A time=00:10:02.18 bitrate=N/A speed=20.1x    frame=14674 fps=482 q=-0.0 size=N/A time=00:10:12.02 bitrate=N/A speed=20.1x    frame=14932 fps=483 q=-0.0 size=N/A time=00:10:22.78 bitrate=N/A speed=20.1x    frame=15217 fps=484 q=-0.0 size=N/A time=00:10:34.67 bitrate=N/A speed=20.2x    frame=15474 fps=484 q=-0.0 size=N/A time=00:10:45.39 bitrate=N/A speed=20.2x    frame=15758 fps=485 q=-0.0 size=N/A time=00:10:57.23 bitrate=N/A speed=20.2x    frame=16012 fps=485 q=-0.0 size=N/A time=00:11:07.83 bitrate=N/A speed=20.2x    frame=16268 fps=485 q=-0.0 size=N/A time=00:11:18.51 bitrate=N/A speed=20.2x    frame=16537 fps=486 q=-0.0 size=N/A time=00:11:29.73 bitrate=N/A speed=20.3x    frame=16787 fps=486 q=-0.0 size=N/A time=00:11:40.15 bitrate=N/A speed=20.3x    frame=17066 fps=487 q=-0.0 size=N/A time=00:11:51.79 bitrate=N/A speed=20.3x    frame=17310 fps=486 q=-0.0 size=N/A time=00:12:01.97 bitrate=N/A speed=20.3x    frame=17550 fps=486 q=-0.0 size=N/A time=00:12:11.98 bitrate=N/A speed=20.3x    frame=17819 fps=487 q=-0.0 size=N/A time=00:12:23.20 bitrate=N/A speed=20.3x    frame=18106 fps=487 q=-0.0 size=N/A time=00:12:35.17 bitrate=N/A speed=20.3x    frame=18370 fps=488 q=-0.0 size=N/A time=00:12:46.18 bitrate=N/A speed=20.3x    frame=18615 fps=488 q=-0.0 size=N/A time=00:12:56.40 bitrate=N/A speed=20.3x    frame=18847 fps=487 q=-0.0 size=N/A time=00:13:06.07 bitrate=N/A speed=20.3x    frame=19084 fps=487 q=-0.0 size=N/A time=00:13:15.96 bitrate=N/A speed=20.3x    frame=19356 fps=487 q=-0.0 size=N/A time=00:13:27.30 bitrate=N/A speed=20.3x    frame=19634 fps=488 q=-0.0 size=N/A time=00:13:38.90 bitrate=N/A speed=20.3x    frame=19889 fps=488 q=-0.0 size=N/A time=00:13:49.53 bitrate=N/A speed=20.3x    frame=20130 fps=488 q=-0.0 size=N/A time=00:13:59.58 bitrate=N/A speed=20.3x    frame=20393 fps=488 q=-0.0 size=N/A time=00:14:10.55 bitrate=N/A speed=20.4x    frame=20648 fps=488 q=-0.0 size=N/A time=00:14:21.19 bitrate=N/A speed=20.4x    frame=20872 fps=487 q=-0.0 size=N/A time=00:14:30.53 bitrate=N/A speed=20.3x    frame=21085 fps=487 q=-0.0 size=N/A time=00:14:39.42 bitrate=N/A speed=20.3x    frame=21346 fps=487 q=-0.0 size=N/A time=00:14:50.30 bitrate=N/A speed=20.3x    frame=21620 fps=487 q=-0.0 size=N/A time=00:15:01.73 bitrate=N/A speed=20.3x    frame=21886 fps=488 q=-0.0 size=N/A time=00:15:12.82 bitrate=N/A speed=20.3x    frame=22148 fps=488 q=-0.0 size=N/A time=00:15:23.75 bitrate=N/A speed=20.3x    frame=22411 fps=488 q=-0.0 size=N/A time=00:15:34.72 bitrate=N/A speed=20.4x    frame=22658 fps=488 q=-0.0 size=N/A time=00:15:45.02 bitrate=N/A speed=20.4x    frame=22925 fps=488 q=-0.0 size=N/A time=00:15:56.16 bitrate=N/A speed=20.4x    frame=23194 fps=489 q=-0.0 size=N/A time=00:16:07.38 bitrate=N/A speed=20.4x    frame=23453 fps=489 q=-0.0 size=N/A time=00:16:18.18 bitrate=N/A speed=20.4x    frame=23709 fps=489 q=-0.0 size=N/A time=00:16:28.86 bitrate=N/A speed=20.4x    frame=23962 fps=489 q=-0.0 size=N/A time=00:16:39.41 bitrate=N/A speed=20.4x    frame=24209 fps=489 q=-0.0 size=N/A time=00:16:49.71 bitrate=N/A speed=20.4x    frame=24448 fps=489 q=-0.0 size=N/A time=00:16:59.68 bitrate=N/A speed=20.4x    frame=24683 fps=488 q=-0.0 size=N/A time=00:17:09.48 bitrate=N/A speed=20.4x    frame=24915 fps=488 q=-0.0 size=N/A time=00:17:19.16 bitrate=N/A speed=20.3x    frame=25190 fps=488 q=-0.0 size=N/A time=00:17:30.63 bitrate=N/A speed=20.4x    frame=25465 fps=489 q=-0.0 size=N/A time=00:17:42.10 bitrate=N/A speed=20.4x    frame=25758 fps=489 q=-0.0 size=N/A time=00:17:54.32 bitrate=N/A speed=20.4x    frame=26023 fps=490 q=-0.0 size=N/A time=00:18:05.37 bitrate=N/A speed=20.4x    frame=26240 fps=489 q=-0.0 size=N/A time=00:18:14.42 bitrate=N/A speed=20.4x    frame=26511 fps=489 q=-0.0 size=N/A time=00:18:25.72 bitrate=N/A speed=20.4x    frame=26769 fps=489 q=-0.0 size=N/A time=00:18:36.49 bitrate=N/A speed=20.4x    frame=27031 fps=490 q=-0.0 size=N/A time=00:18:47.41 bitrate=N/A speed=20.4x    frame=27304 fps=490 q=-0.0 size=N/A time=00:18:58.80 bitrate=N/A speed=20.4x    frame=27555 fps=490 q=-0.0 size=N/A time=00:19:09.27 bitrate=N/A speed=20.4x    frame=27775 fps=489 q=-0.0 size=N/A time=00:19:18.44 bitrate=N/A speed=20.4x    frame=28036 fps=489 q=-0.0 size=N/A time=00:19:29.33 bitrate=N/A speed=20.4x    frame=28275 fps=489 q=-0.0 size=N/A time=00:19:39.30 bitrate=N/A speed=20.4x    frame=28545 fps=490 q=-0.0 size=N/A time=00:19:50.56 bitrate=N/A speed=20.4x    frame=28830 fps=490 q=-0.0 size=N/A time=00:20:02.45 bitrate=N/A speed=20.4x    frame=29087 fps=490 q=-0.0 size=N/A time=00:20:13.17 bitrate=N/A speed=20.4x    frame=29350 fps=490 q=-0.0 size=N/A time=00:20:24.13 bitrate=N/A speed=20.5x    frame=29579 fps=490 q=-0.0 size=N/A time=00:20:33.69 bitrate=N/A speed=20.4x    frame=29832 fps=490 q=-0.0 size=N/A time=00:20:44.24 bitrate=N/A speed=20.4x    frame=30082 fps=490 q=-0.0 size=N/A time=00:20:54.67 bitrate=N/A speed=20.4x    frame=30317 fps=490 q=-0.0 size=N/A time=00:21:04.47 bitrate=N/A speed=20.4x    frame=30579 fps=490 q=-0.0 size=N/A time=00:21:15.39 bitrate=N/A speed=20.4x    frame=30847 fps=490 q=-0.0 size=N/A time=00:21:26.57 bitrate=N/A speed=20.4x    frame=31116 fps=490 q=-0.0 size=N/A time=00:21:37.79 bitrate=N/A speed=20.4x    frame=31376 fps=490 q=-0.0 size=N/A time=00:21:48.64 bitrate=N/A speed=20.5x    frame=31620 fps=490 q=-0.0 size=N/A time=00:21:58.81 bitrate=N/A speed=20.4x    frame=31896 fps=491 q=-0.0 size=N/A time=00:22:10.32 bitrate=N/A speed=20.5x    frame=32154 fps=491 q=-0.0 size=N/A time=00:22:21.08 bitrate=N/A speed=20.5x    frame=32415 fps=491 q=-0.0 size=N/A time=00:22:31.97 bitrate=N/A speed=20.5x    frame=32668 fps=491 q=-0.0 size=N/A time=00:22:42.52 bitrate=N/A speed=20.5x    frame=32918 fps=491 q=-0.0 size=N/A time=00:22:52.95 bitrate=N/A speed=20.5x    frame=33168 fps=491 q=-0.0 size=N/A time=00:23:03.38 bitrate=N/A speed=20.5x    frame=33411 fps=491 q=-0.0 size=N/A time=00:23:13.51 bitrate=N/A speed=20.5x    frame=33668 fps=491 q=-0.0 size=N/A time=00:23:24.23 bitrate=N/A speed=20.5x    frame=33904 fps=490 q=-0.0 size=N/A time=00:23:34.07 bitrate=N/A speed=20.5x    frame=34170 fps=491 q=-0.0 size=N/A time=00:23:45.17 bitrate=N/A speed=20.5x    [Parsed_ssim_10 @ 0000021de75e5f80] SSIM Y:0.994847 (22.879027) U:0.994370 (22.494819) V:0.994466 (22.569525) All:0.994704 (22.760247)
[out#0/null @ 0000021dda173b80] video:14722KiB audio:267972KiB subtitle:0KiB other streams:0KiB global headers:0KiB muxing overhead: unknown
frame=34261 fps=491 q=-0.0 Lsize=N/A time=00:23:48.96 bitrate=N/A speed=20.5x    
